<svg xmlns="https://www.w3.org/2000/svg" viewBox="-2 -2 297.271 229.469"><title>The words "start with the heart" in an curvy font.</title><path d="M121.968 225.19c-3.357-.478-5.8-2.092-7.067-4.67-.713-1.452-.738-1.644-.73-5.605.009-3.752.085-4.405.898-7.673 2.071-8.329 6.17-18.422 11.272-27.755l1.504-2.752-2.134.178c-4.033.336-7.115 1.654-8.281 3.54-.559.904-.56.933-.078 1.748.305.517.495 1.362.503 2.24.011 1.292-.069 1.484-.955 2.297-2.643 2.423-7.935 1.76-9.418-1.181-.436-.866-.595-1.643-.595-2.91.001-6.913 9.365-12.092 20.932-11.578l3.37.15 1.409-2.156c2.157-3.3 6.105-8.473 8.86-11.609 8.95-10.187 16.642-14.668 24.292-14.152 2.367.16 5.356.79 5.787 1.22.124.124-3.01 15.387-6.964 33.92l-7.456 34.952-.267 1.257h-6.876c-6.425 0-6.865-.03-6.732-.463.079-.255 1.7-7.845 3.602-16.867 1.902-9.023 3.516-16.6 3.588-16.84.263-.883-6.727-3.183-10.797-3.552l-1.955-.177-1.543 3.537c-6.026 13.81-10.269 28.975-10.652 38.07-.146 3.455.023 4.746.887 6.809.164.393-1.724.402-4.404.021zm32.156-62.265c1.49-6.985 2.667-12.744 2.618-12.798-.216-.239-3.589 2.453-5.147 4.108-3.576 3.799-7.73 10.06-11.07 16.688l-.832 1.648.729.156c2.695.577 7.084 1.77 8.534 2.322.946.36 1.887.636 2.09.615.27-.029 1.109-3.498 3.078-12.74zm-79.459 52.78c-7.364-1.93-11.699-7.864-11.699-16.016 0-8.626 4.386-17.247 11.091-21.8 1.425-.968 4.287-2.397 4.8-2.397.118 0 .516-.114.884-.254l.67-.255-1.547-1.475c-2.72-2.594-4.087-5.979-4.063-10.054.042-7.262 4.22-13.98 11.221-18.042 3.814-2.213 10.647-2.967 14.78-1.632 3.272 1.058 5.904 3.255 7.244 6.048.794 1.653.826 1.852.826 5.16 0 3.34-.025 3.489-.858 5.191-1.647 3.366-4.375 5.158-6.842 4.494-1.148-.31-3.28-1.705-3.28-2.147 0-.145.459-.68 1.02-1.186 1.824-1.648 3.23-5.804 2.84-8.4-.607-4.047-5.286-5.546-9.3-2.98-3.818 2.44-6.152 8.524-5.414 14.113.592 4.485 2.956 7.926 6.665 9.704 1.059.507 2.106.926 2.329.93.222.005-.62.4-1.872.875-7.005 2.666-13.02 10.534-14.447 18.901-.389 2.28-.41 2.986-.14 4.838.566 3.881 2.572 6.502 5.708 7.454 1.652.503 5.768.358 8.18-.286 2.749-.735 6.584-2.62 8.531-4.193.873-.706 2.177-2.07 2.897-3.034l1.309-1.75.94.425c.517.235.983.453 1.036.487.187.116-2.056 4.045-3.167 5.549-2.34 3.169-6.347 6.618-10.07 8.669-2.245 1.236-5.548 2.447-8.423 3.085-3.136.697-9.146.685-11.849-.023zm133.277.172c-1.544-.416-2.697-1.242-3.471-2.488-.553-.89-.612-1.288-.595-4.03.018-2.735.143-3.51 1.24-7.673 2.673-10.155 3.09-11.943 3.393-14.584.514-4.479-.277-6.887-2.67-8.122-1.037-.536-1.483-.601-3.496-.514-1.27.054-2.36.152-2.421.216-.062.065-1.822 8.184-3.91 18.042l-3.797 17.924-6.813.001c-3.747 0-6.813-.088-6.814-.197-.003-.554 12.79-60.024 12.95-60.199.188-.205 13.464-2.116 13.782-1.983.093.039-.51 3.286-1.342 7.215l-2.317 10.948-.804 3.805 1.765-.173c2.65-.26 4.776-1.398 7.234-3.877 3.475-3.503 5.425-8.432 5.2-13.143-.219-4.578-2.658-7.886-6.607-8.958-1.813-.493-6.773-.498-9.751-.01-9.558 1.564-16.596 7.438-18.787 15.678-1.065 4.005-1.147 9.802-.17 12.1.24.563.436 1.086.436 1.162 0 .076-.923.073-2.05-.008-4.33-.307-6.891-2.376-7.707-6.227-1.184-5.584 1.334-11.664 7.037-16.99 5.532-5.166 12.535-8.602 20.58-10.096 2.37-.44 9.237-.444 11.64-.007 10.386 1.89 16.47 8.545 15.28 16.713-.718 4.92-4.177 10.294-8.544 13.27-.72.492-1.31.966-1.31 1.056-.001.09.557.376 1.24.636 1.749.668 3.313 2.215 4.212 4.163.718 1.558.76 1.843.733 4.96-.033 3.641-.244 4.783-2.622 14.155-2.54 10.005-2.475 12.449.394 15.041.67.605.954 1.021.745 1.092-3.745 1.26-9.347 1.78-11.863 1.101zM8.466 214.452c.002-.109 3.08-14.605 6.841-32.213s6.746-32.05 6.632-32.095c-.365-.145-2.975 1.297-4.85 2.68-1.003.739-2.47 2.124-3.258 3.077-1.638 1.977-3.59 5.752-4.177 8.071-.99 3.917-1.006 9.575-.035 11.884.237.563.43 1.086.43 1.162 0 .076-.922.072-2.05-.008-5.242-.372-8.017-3.497-7.999-9.005.006-1.871.633-4.692 1.43-6.431 1.614-3.527 5.52-7.958 9.55-10.833 6.537-4.665 15.32-7.538 23.008-7.524 3.683.006 3.655-1.755.223 14.235-1.646 7.667-2.992 14.028-2.993 14.137-.001.11 3.137.199 6.973.199h6.974l.75-3.506c.412-1.928 1.77-8.268 3.018-14.089L51.2 143.61l6.809-.07c5.358-.056 6.807 0 6.802.264-.003.184-3.379 16.17-7.501 35.525l-7.495 35.19-6.786.07c-4.99.052-6.787-.01-6.787-.235 0-.168 1.667-8.156 3.705-17.752 2.037-9.595 3.704-17.497 3.704-17.558 0-.062-3.146-.112-6.99-.112h-6.99l-.24 1.124c-.13.619-1.837 8.655-3.791 17.858l-3.553 16.734-6.813.002c-3.747 0-6.811-.088-6.81-.198zm233.44-.529c.08-.4 2.96-13.824 6.4-29.832 3.439-16.007 6.412-29.864 6.608-30.793l.355-1.69-2.952.148c-3.454.172-5.408.64-8.033 1.92-2.807 1.371-4.639 3.169-5.886 5.778-1.557 3.255-1.989 5.585-1.993 10.747-.003 3.625.079 4.581.487 5.638.27.7.447 1.317.393 1.371-.287.287-4.46-.506-5.667-1.077-2.987-1.413-4.165-3.794-4.138-8.362.047-7.919 3.449-14.392 9.847-18.735 4.892-3.322 10.45-4.995 18.556-5.586 4.984-.364 10.167-.04 17.824 1.115 8.68 1.31 14.56 1.148 20.008-.548l1.556-.484v.645c0 1.455-.891 4.822-1.657 6.264-1.486 2.796-3.977 4.384-7.827 4.991-2.721.43-8.553-.208-16.352-1.787l-.832-.169-.377 1.681c-.208.925-3.167 14.689-6.577 30.587l-6.198 28.905h-13.692l.147-.727zm-195.367-88.69c-1.192-.36-2.106-1.116-2.704-2.235-1-1.867-.764-4.548 1.199-13.651l1.682-7.806 3.363-.074c2.683-.059 3.362-.002 3.362.284 0 .196-.774 4.017-1.72 8.491-.945 4.474-1.72 8.36-1.72 8.635 0 .274.139.802.308 1.173.25.548.492.674 1.302.674 1.29 0 2.383-.91 3.092-2.574.398-.934 3.765-15.794 3.765-16.615 0-.07 1.55-.126 3.445-.126 3.437 0 3.444.001 3.307.596-.42 1.817-3.284 15.584-3.436 16.516-.26 1.596.145 2.203 1.47 2.203.584 0 1.383-.168 1.776-.373 2.704-1.413 5.664-7.685 6.362-13.484l.212-1.76-.852.16c-1.139.213-1.858-.22-2.229-1.342-.454-1.376.054-2.72 1.21-3.203 3.02-1.261 4.925 1.026 4.495 5.396-1 10.178-5.196 17.484-10.894 18.968-3.69.961-6.77.014-7.868-2.42l-.46-1.02-1.547 1.504c-2.075 2.018-4.613 2.782-6.92 2.083zm36.248.016c-1.215-.396-2.11-1.142-2.704-2.25-1-1.868-.764-4.549 1.199-13.652l1.682-7.806 3.363-.074c2.683-.059 3.362-.002 3.362.284 0 .196-.774 4.017-1.72 8.491-.945 4.474-1.72 8.462-1.72 8.861 0 .4.153.934.34 1.19.462.632 2.282.631 3.356-.001.855-.504 2.39-2.55 2.39-3.185 0-.234.354-.352 1.055-.352h1.054l-.544 1.39c-1.214 3.096-3.167 5.305-5.73 6.478-1.549.71-4.187 1.016-5.383.626zm17.463 0c-1.216-.396-2.111-1.142-2.703-2.25-.985-1.844-.784-4.424.965-12.429.823-3.765 1.496-6.95 1.496-7.077 0-.128-.305-.232-.678-.232-.606 0-.67-.092-.596-.86.072-.746.192-.87.904-.94l.82-.08.713-3.216c.392-1.77.758-3.263.815-3.32.056-.056 1.599-.307 3.428-.557 3.917-.536 3.625-.922 2.664 3.524-.364 1.682-.662 3.18-.662 3.328 0 .148.596.27 1.323.27 1.376 0 1.467.098 1.156 1.256-.14.524-.33.595-1.583.595-.784 0-1.425.058-1.425.128s-.714 3.465-1.587 7.545c-1.692 7.903-1.786 8.623-1.234 9.378.456.625 2.136.643 3.309.036.842-.435 2.423-2.554 2.423-3.248 0-.226.363-.345 1.054-.345h1.055l-.545 1.39c-1.213 3.096-3.166 5.305-5.73 6.478-1.548.71-4.186 1.016-5.382.626zm29.295-.134c-1.51-.563-2.51-1.66-2.979-3.274-.487-1.675-.4-2.518.857-8.233.852-3.874 1.118-6.694.693-7.33-.833-1.248-2.76-.816-3.87.865-.99 1.498-1.246 2.419-2.953 10.604l-1.559 7.475h-3.38c-1.86 0-3.381-.095-3.381-.21 0-.41 6.786-32.065 6.898-32.177.187-.187 6.62-1.014 6.765-.87.073.074-.411 2.655-1.077 5.737-.665 3.082-1.21 5.646-1.21 5.696 0 .05.605-.314 1.343-.811 1.633-1.1 3.146-1.536 4.777-1.38 2.607.251 4.244 1.828 4.59 4.422.182 1.372-.28 4.266-1.444 9.032-.906 3.71-.972 4.64-.387 5.475.319.455.673.588 1.567.588 1.461 0 2.437-.775 3.302-2.622.596-1.274.685-1.347 1.64-1.347h1.01l-.527 1.336c-1.342 3.402-2.915 5.401-5.139 6.528-1.63.827-4.063 1.044-5.536.496zm32.088.134c-1.216-.396-2.111-1.142-2.703-2.25-.984-1.844-.784-4.424.965-12.429.823-3.765 1.496-6.95 1.496-7.077 0-.128-.305-.232-.678-.232-.606 0-.67-.092-.595-.86.072-.746.19-.87.903-.94l.821-.08.712-3.216c.392-1.77.759-3.263.815-3.32.056-.056 1.6-.307 3.428-.557 3.917-.536 3.625-.922 2.664 3.524-.364 1.682-.661 3.18-.661 3.328 0 .148.595.27 1.323.27 1.375 0 1.466.098 1.156 1.256-.14.524-.33.595-1.584.595-.784 0-1.425.058-1.425.128s-.714 3.465-1.587 7.545c-1.691 7.903-1.786 8.623-1.234 9.378.457.625 2.136.643 3.31.036.841-.435 2.422-2.554 2.422-3.248 0-.226.364-.345 1.054-.345h1.055l-.544 1.39c-1.214 3.096-3.167 5.305-5.73 6.478-1.549.71-4.187 1.016-5.383.626zm29.296-.134c-1.511-.563-2.51-1.66-2.98-3.274-.487-1.675-.4-2.518.857-8.233.852-3.874 1.118-6.694.693-7.33-.832-1.248-2.76-.816-3.87.865-.99 1.498-1.246 2.419-2.953 10.604l-1.558 7.475h-3.381c-1.86 0-3.381-.095-3.381-.21 0-.41 6.786-32.065 6.898-32.177.187-.187 6.62-1.014 6.765-.87.073.074-.41 2.655-1.076 5.737-.666 3.082-1.21 5.646-1.21 5.696 0 .05.604-.314 1.342-.811 1.633-1.1 3.147-1.536 4.777-1.38 2.607.251 4.244 1.828 4.59 4.422.183 1.372-.28 4.266-1.444 9.032-.906 3.71-.971 4.64-.386 5.475.318.455.673.588 1.567.588 1.46 0 2.436-.775 3.301-2.622.597-1.274.686-1.347 1.64-1.347h1.01l-.527 1.336c-1.341 3.402-2.915 5.401-5.139 6.528-1.63.827-4.062 1.044-5.535.496zm18.442.118c-2.47-.589-4.07-2.162-4.709-4.631-.509-1.965-.513-3.18-.02-5.995 1.102-6.291 3.973-10.839 8.062-12.769 1.537-.725 2.01-.82 4.118-.822 4.033-.006 5.483 1.263 5.456 4.775-.034 4.44-4.026 8.575-9.121 9.447l-1.76.302.005 1.864c.005 2.222.352 3.024 1.587 3.668.714.371 1.293.449 2.563.342 2.129-.18 3.838-1.058 6.01-3.09 1.34-1.254 1.868-1.588 2.407-1.522l.69.085-.863 1.323c-1.289 1.974-4.12 4.651-5.939 5.614-2.767 1.466-5.996 2.002-8.486 1.409zm5.131-12.806c2.736-1.418 4.956-5.877 4.069-8.174-.393-1.017-1.564-.99-2.764.064-1.087.954-2.567 3.706-3.325 6.182-.785 2.565-.757 2.806.305 2.566a8.677 8.677 0 001.715-.638zM86.11 98.235c-2.696-1.335-2.771-5.238-.128-6.652 1.153-.616 2.255-.626 3.425-.03 1.225.626 1.905 1.625 2.048 3.013.164 1.584-.544 2.836-2.039 3.602-1.426.731-1.943.742-3.306.067zm33.478-15.783c-3.937-.591-5.351-1.2-6.988-3.012-1.235-1.368-1.711-2.575-1.972-5-.848-7.904 4.226-23.4 12.56-38.359l1.24-2.225-2.09.162c-2.311.179-5.315 1.006-6.678 1.838-.487.297-1.223 1.006-1.636 1.576l-.75 1.036.559.948c.353.6.565 1.427.577 2.254.017 1.176-.078 1.394-.948 2.193-1.107 1.014-2.415 1.45-4.352 1.453-3.586.004-5.68-1.947-5.697-5.306-.011-2.4.647-4.004 2.418-5.891 3.842-4.094 10.55-6.251 18.429-5.925l3.48.144 1.777-2.668c5.558-8.348 12.4-15.99 18.064-20.179 2.669-1.973 6.36-3.88 8.797-4.543 2.345-.638 7.424-.636 9.774.003.945.257 1.812.562 1.928.677.115.116-3.075 15.608-7.09 34.427-4.015 18.82-7.368 34.555-7.45 34.969l-.151.752h-6.846c-3.766 0-6.842-.03-6.838-.066.005-.037 1.656-7.806 3.668-17.264l3.659-17.198-1.353-.62c-2.163-.99-5.068-1.862-7.705-2.311-3.689-.63-3.702-.624-4.796 1.872-4.722 10.776-8.68 23.097-10.443 32.514-.321 1.716-.607 4.593-.686 6.91-.134 3.928-.074 4.393.84 6.548.173.41.033.459-1.222.427-.78-.02-1.715-.081-2.079-.136zm28.321-49.636c.006-.036 1.236-5.781 2.734-12.766s2.692-12.742 2.653-12.792c-.223-.295-3.304 2.178-5.184 4.162-3.418 3.607-6.789 8.57-10.121 14.904l-1.77 3.364.745.167c3.316.744 7.194 1.8 8.591 2.34 1.523.59 2.323.8 2.352.62zM19.84 72.85c-8.55-1.806-13.59-7.122-14.193-14.97-.532-6.922 3.611-13.676 9.52-15.52 1.886-.59 4.881-.629 6.702-.088 1.803.536 3.522 1.908 4.393 3.51 1.018 1.87.962 2.115-.535 2.32-3.272.45-5.231 1.353-6.972 3.215-1.723 1.842-2.223 3.322-2.218 6.567.005 3.229.603 4.805 2.485 6.566 1.695 1.586 3.676 2.298 6.393 2.298 3.501 0 6.16-1.132 8.465-3.604 3.532-3.787 4.084-9.937 1.374-15.314-1.085-2.154-3.617-5.694-6.634-9.275-8.984-10.667-11.014-13.947-11.69-18.89-1.074-7.872 3.421-14.92 11.504-18.038 3.4-1.311 5.383-1.645 9.662-1.627 6.248.026 10.026 1.33 13.3 4.593 2.714 2.704 3.899 6.013 3.497 9.766-.51 4.764-3.143 7.676-6.938 7.673-2.17-.002-3.268-.382-4.667-1.613l-1.226-1.08 1.057-1.2c1.753-1.992 2.466-3.796 2.591-6.557.1-2.22.056-2.48-.656-3.832-1.321-2.512-4.014-3.632-7.473-3.109-3.991.604-6.773 3.986-7.08 8.61-.302 4.548 1.156 7.399 7.445 14.555 8.493 9.663 9.235 10.641 11.12 14.666.63 1.346 1.355 3.281 1.61 4.3.561 2.248.64 7.008.152 9.212-1.61 7.27-7.822 13.606-15.706 16.02-4.607 1.41-10.947 1.762-15.282.846zm184.632.143c-2.854-.768-4.17-2.666-4.18-6.024-.007-2.6.396-4.658 2.361-12.053 2.07-7.789 2.442-9.722 2.457-12.775.015-3.101-.603-4.677-2.265-5.777-.97-.642-1.294-.705-3.642-.705-1.417 0-2.643.066-2.724.147-.081.081-1.853 8.178-3.939 17.992l-3.79 17.845-6.8.07c-4.948.052-6.8-.011-6.8-.23 0-.298 12.74-60.104 12.83-60.232.11-.154 13.725-1.91 13.85-1.785.118.118-4.064 20.592-4.391 21.497-.16.441 1.214.426 3.171-.034 3-.706 6.277-3.4 8.372-6.88 2.109-3.506 3.16-8.65 2.42-11.836-.788-3.382-3.029-5.924-6.048-6.86-3.535-1.094-10.586-.541-15.21 1.194-6.149 2.307-9.823 5.53-12.377 10.856-1.295 2.7-1.774 4.565-2.119 8.256-.3 3.2-.03 6.088.7 7.499.214.415.39.838.39.939 0 .365-3.872-.124-5.337-.675-3.044-1.143-4.706-4.004-4.714-8.112-.009-4.61 1.808-8.643 5.792-12.854 10.745-11.36 28.985-15.411 41.155-9.14 2.587 1.332 5.49 4.113 6.57 6.29 2.82 5.696 1.246 12.776-4.092 18.396-1.013 1.066-2.428 2.314-3.145 2.775-.717.46-1.304.927-1.304 1.037 0 .11.559.415 1.241.675 2.664 1.018 4.377 3.468 4.883 6.984.41 2.85-.133 6.4-2.321 15.175-2.776 11.13-2.77 13.457.05 16.055.713.658 1.047 1.132.846 1.2-3.66 1.25-9.36 1.772-11.89 1.09zM71.703 71.45c.004-.185 3.023-14.371 6.71-31.526l6.704-31.19-2.94.147c-5.155.257-8.869 1.69-11.63 4.485-3.018 3.058-4.128 6.43-4.331 13.166-.12 3.98-.082 4.514.439 6.05.314.927.535 1.72.491 1.764-.043.044-.972-.02-2.063-.143-3.382-.38-5.73-1.749-6.902-4.02-1.128-2.19-1.179-7.274-.115-11.456.572-2.248 2.798-6.63 4.195-8.26 7.46-8.702 20.906-11.798 39.419-9.077 5.892.866 8.326 1.085 12.089 1.09 3.982.006 6.063-.26 9.23-1.177 2.473-.716 2.328-.908 1.753 2.321-.94 5.276-3.59 7.928-8.879 8.887-2.623.476-7.752-.002-14.499-1.35-1.504-.3-2.799-.482-2.877-.404-.078.078-3.077 13.81-6.665 30.514L85.31 71.644l-6.805.07c-5.357.056-6.805 0-6.8-.264zm166.688 0c.003-.185 3.023-14.372 6.71-31.528l6.705-31.192-2.94.156c-5.207.275-8.873 1.688-11.63 4.48-3.02 3.058-4.13 6.43-4.333 13.166-.12 3.98-.081 4.514.44 6.05.314.927.535 1.72.491 1.764-.044.044-.972-.02-2.064-.143-6.058-.681-8.43-4.184-7.684-11.353.367-3.534.87-5.3 2.375-8.356 3.349-6.798 9.753-11.168 19.2-13.102 6.589-1.348 14.281-1.256 24.606.297 8.436 1.269 14.095 1.156 19.42-.386 2.473-.716 2.328-.908 1.752 2.321-.94 5.276-3.589 7.928-8.878 8.887-2.623.476-7.752-.002-14.5-1.35-1.503-.3-2.799-.482-2.877-.403-.08.079-3.079 13.81-6.666 30.514l-6.522 30.372-6.805.07c-5.356.056-6.805 0-6.8-.264z"/></svg>