<svg xmlns="http://www.w3.org/2000/svg" viewBox="-2 -2 491 491"><title id="icon-heart">Illustration of a human heart</title><path d="M400.04 195.19c-19.858-35.607-42.931-61.026-69.871-76.828-1.737-3.451-10.581-20.149-28.275-38.755-7.194-7.563-16.52-16.174-28.11-24.659 18.287-11.166 36.825-18.339 37.029-18.417a4.253 4.253 0 002.361-5.695C303.665 9.444 289.383.93 288.78.579a4.25 4.25 0 00-3.459-.369c-22.565 7.358-42.18 17.01-58.349 28.688a223.59 223.59 0 00-20.674-7.207 4.242 4.242 0 00-2.606.065c-1.03.36-25.26 9.145-27.744 36.47a4.249 4.249 0 002.859 4.407c.143.049 4.704 1.626 11.704 4.575-13.805 22.319-14.553 40.309-14.578 41.097-.013.417.053.815.152 1.199a639.792 639.792 0 00-21.582 5.9c-17.685 5.154-31.067 12.458-44.819 21.743-3.633-40.916 5.464-87.316 5.58-87.896a4.251 4.251 0 00-4.918-5.016l-44.168 7.928a4.25 4.25 0 00-3.444 3.499c-10.085 61.854-4.865 102.437 1.32 125.652-20.843 37.505-18.558 83.973 6.293 127.549 30.842 54.074 81.526 106.047 135.58 139.027 30.26 18.463 60.553 30.557 90.039 35.945 11.604 2.12 22.994 3.18 34.138 3.179 20.38 0 39.932-3.542 58.415-10.607 15.988-6.11 28.387-21.022 36.853-44.322 22.835-62.839 11.234-171.325-25.332-236.895zM285.985 8.942c3.247 2.388 11.144 9.058 17.518 21.384-7.228 3.036-22.485 9.893-37.29 19.329a216.74 216.74 0 00-30.077-16.795C250.274 23.33 267 15.3 285.985 8.942zm-80.678 21.323c35.274 10.661 61.199 28.238 78.837 43.982h-24.158a4.25 4.25 0 100 8.5h33.107c.822.831 1.628 1.655 2.399 2.463 9.601 10.059 16.428 19.349 20.813 26.03a141.182 141.182 0 00-26.057-8.687c-10.683-2.445-21.777-3.816-33.638-4.098-23.658-23.543-60.533-38.489-71.762-42.68 2.987-16.601 16.332-23.69 20.459-25.51zm33.247 68.571a18.81 18.81 0 01-.221-4.933 135.32 135.32 0 015.812 4.65c-1.844.071-3.706.163-5.591.283zm-40.183-28.172c9.468 4.339 21.172 10.346 32.309 17.799-.943 3.727-1.165 7.434-.634 11.067-13.881 1.37-28.917 3.995-45.529 7.914.397-4.106 2.567-18.969 13.854-36.78zm-92.552-16.98c-3.177 18.635-11.192 75.236.9 113.908-1.073 5.093-6.987 27.941-27.227 31.407-4.205-8.559-17.481-41.17-12.904-103.995h23a4.25 4.25 0 000-8.5h-22.29a438.538 438.538 0 013.351-26.508l35.17-6.312zM64.631 275.04h31.087a4.25 4.25 0 100-8.5H62.209a126.803 126.803 0 01-3.267-19.077h81.602a4.25 4.25 0 100-8.5H58.455c-.316-16.092 2.76-31.644 9.241-45.967 2.974 8.188 5.497 12.317 5.832 12.848a4.25 4.25 0 003.932 1.966c25.013-2 35.682-26.894 37.829-39.777a4.254 4.254 0 00-.15-2.013c-1.947-5.989-3.357-12.519-4.347-19.326 14.427-10.039 27.909-17.83 46.089-23.129 1.636-.477 3.264-.944 4.885-1.404 4.559 1.641 40.912 15.545 52.586 44.785 6.953 17.416 4.484 37.447-7.339 59.539-12.955 24.204-27.621 43.909-40.561 61.295-14.948 20.084-27.857 37.429-33.163 55.235-3.579 12.012-3.469 23.642.452 35.506-22.03-22.869-41.325-48.122-56.01-73.868-5.577-9.778-9.936-19.7-13.1-29.613zm198.336-99.555c-24.468-27.47-45.689-53.185-54.714-64.293 77.134-13.7 136.732 2.73 184.363 88.138 34.928 62.633 46.502 170.042 24.769 229.854-7.479 20.583-18.509 34.168-31.898 39.285-59.766 22.843-119.475 3.166-162.571-20.549h50.133a4.25 4.25 0 000-8.5h-64.645c-9.499-5.888-18.885-12.362-28.064-19.342h36.409a4.25 4.25 0 100-8.5h-47.177a405.542 405.542 0 01-16.373-14.122c-27.889-39.1-8.979-65.568 20.073-104.602 13.117-17.623 27.983-37.598 41.236-62.359 13.073-24.428 15.67-46.886 7.719-66.752-9.938-24.83-33.659-38.971-47.033-45.232 8.034-2.085 15.895-3.935 23.584-5.509 9.065 11.268 53.892 66.501 93.643 106.849-1.679 8.485-12.561 60.747-33.384 103.088l-36.948 10.176a4.252 4.252 0 002.257 8.196l29.299-8.069c-10.698 19.19-23.656 35.125-38.964 41.998a4.25 4.25 0 003.481 7.754c26.237-11.779 45.673-46.145 59.106-80.299l9.912 26.927a4.252 4.252 0 005.457 2.519 4.25 4.25 0 002.52-5.456l-13.323-36.192c9.522-26.785 15.322-51.706 17.8-63.434 13.705 13.47 26.469 24.648 36.522 30.983l5.209 25.655a4.25 4.25 0 108.33-1.692l-4.698-23.137 35.199-5.8a4.25 4.25 0 00-1.383-8.387l-37.981 6.258c-17.566-10.986-44.642-38.483-70.104-66.64l75.694 4.264a4.25 4.25 0 10.478-8.486l-10.767-.606 9.025-9.153a4.25 4.25 0 00-6.053-5.968l-14.281 14.484-61.858-3.286v-.063z"/><path d="M404.088 345.418h-.018a4.251 4.251 0 00-4.233 4.268c.211 52.302-13.749 90.179-36.432 98.848a4.251 4.251 0 001.518 8.22c.504 0 1.017-.09 1.516-.281 26.464-10.114 42.127-50.048 41.897-106.821a4.248 4.248 0 00-4.248-4.234z"/></svg>